<svg width="19" height="22" viewBox="0 0 19 22" fill="none" xmlns="http://www.w3.org/2000/svg">
<path fill-rule="evenodd" clip-rule="evenodd" d="M8.99998 0C7.98888 0 7.16663 0.82225 7.16663 1.83335V3.31937C4.60532 4.16213 2.75041 6.57739 2.75041 9.41665V11.7147C2.75041 13.1273 2.36632 14.5133 1.64032 15.7242L0.0654691 18.3477C-0.0197809 18.4889 -0.0216285 18.6658 0.0590668 18.8088C0.140664 18.9527 0.293719 19.0417 0.458719 19.0417H6.00028C6.02259 20.6793 7.35707 22 9 22C10.6429 22 11.9774 20.6793 11.9997 19.0417H17.8754C18.0404 19.0417 18.1935 18.9528 18.275 18.8088C18.3557 18.6658 18.3539 18.4889 18.2687 18.3477L16.6938 15.7242C15.9678 14.5133 15.5837 13.1273 15.5837 11.7147V9.41665C15.5837 6.45532 13.5659 3.95524 10.8333 3.21949V1.83335C10.8333 0.82225 10.0111 0 8.99998 0ZM9.16707 3C8.79781 3 8.43572 3.03137 8.08332 3.0916V1.83335C8.08332 1.32735 8.49398 0.916695 8.99998 0.916695C9.50598 0.916695 9.91663 1.32735 9.91663 1.83335V3.04354C9.6707 3.01479 9.42058 3 9.16707 3Z" fill="white"/>
</svg>
